solid buildings
  facet normal 0.000000e+00 0.000000e+00 -1.000000e+00
    outer loop
      vertex 1.250000e+01 1.500000e+01 0.000000e+00
      vertex 2.750000e+01 2.500000e+01 0.000000e+00
      vertex 2.750000e+01 1.500000e+01 0.000000e+00
    endloop
  endfacet
  facet normal 0.000000e+00 0.000000e+00 -1.000000e+00
    outer loop
      vertex 1.250000e+01 1.500000e+01 0.000000e+00
      vertex 1.250000e+01 2.500000e+01 0.000000e+00
      vertex 2.750000e+01 2.500000e+01 0.000000e+00
    endloop
  endfacet
  facet normal 0.000000e+00 0.000000e+00 1.000000e+00
    outer loop
      vertex 1.250000e+01 1.500000e+01 4.000000e+01
      vertex 2.750000e+01 1.500000e+01 4.000000e+01
      vertex 2.750000e+01 2.500000e+01 4.000000e+01
    endloop
  endfacet
  facet normal 0.000000e+00 0.000000e+00 1.000000e+00
    outer loop
      vertex 1.250000e+01 1.500000e+01 4.000000e+01
      vertex 2.750000e+01 2.500000e+01 4.000000e+01
      vertex 1.250000e+01 2.500000e+01 4.000000e+01
    endloop
  endfacet
  facet normal 0.000000e+00 -1.000000e+00 0.000000e+00
    outer loop
      vertex 1.250000e+01 1.500000e+01 0.000000e+00
      vertex 2.750000e+01 1.500000e+01 0.000000e+00
      vertex 2.750000e+01 1.500000e+01 4.000000e+01
    endloop
  endfacet
  facet normal 0.000000e+00 -1.000000e+00 0.000000e+00
    outer loop
      vertex 1.250000e+01 1.500000e+01 0.000000e+00
      vertex 2.750000e+01 1.500000e+01 4.000000e+01
      vertex 1.250000e+01 1.500000e+01 4.000000e+01
    endloop
  endfacet
  facet normal 0.000000e+00 1.000000e+00 0.000000e+00
    outer loop
      vertex 2.750000e+01 2.500000e+01 0.000000e+00
      vertex 1.250000e+01 2.500000e+01 0.000000e+00
      vertex 1.250000e+01 2.500000e+01 4.000000e+01
    endloop
  endfacet
  facet normal 0.000000e+00 1.000000e+00 -0.000000e+00
    outer loop
      vertex 2.750000e+01 2.500000e+01 0.000000e+00
      vertex 1.250000e+01 2.500000e+01 4.000000e+01
      vertex 2.750000e+01 2.500000e+01 4.000000e+01
    endloop
  endfacet
  facet normal -1.000000e+00 0.000000e+00 0.000000e+00
    outer loop
      vertex 1.250000e+01 1.500000e+01 0.000000e+00
      vertex 1.250000e+01 1.500000e+01 4.000000e+01
      vertex 1.250000e+01 2.500000e+01 4.000000e+01
    endloop
  endfacet
  facet normal -1.000000e+00 0.000000e+00 0.000000e+00
    outer loop
      vertex 1.250000e+01 1.500000e+01 0.000000e+00
      vertex 1.250000e+01 2.500000e+01 4.000000e+01
      vertex 1.250000e+01 2.500000e+01 0.000000e+00
    endloop
  endfacet
  facet normal 1.000000e+00 0.000000e+00 0.000000e+00
    outer loop
      vertex 2.750000e+01 1.500000e+01 0.000000e+00
      vertex 2.750000e+01 2.500000e+01 0.000000e+00
      vertex 2.750000e+01 2.500000e+01 4.000000e+01
    endloop
  endfacet
  facet normal 1.000000e+00 0.000000e+00 0.000000e+00
    outer loop
      vertex 2.750000e+01 1.500000e+01 0.000000e+00
      vertex 2.750000e+01 2.500000e+01 4.000000e+01
      vertex 2.750000e+01 1.500000e+01 4.000000e+01
    endloop
  endfacet
  facet normal 0.000000e+00 0.000000e+00 -1.000000e+00
    outer loop
      vertex 4.400000e+01 9.000000e+00 0.000000e+00
      vertex 5.600000e+01 2.100000e+01 0.000000e+00
      vertex 5.600000e+01 9.000000e+00 0.000000e+00
    endloop
  endfacet
  facet normal 0.000000e+00 0.000000e+00 -1.000000e+00
    outer loop
      vertex 4.400000e+01 9.000000e+00 0.000000e+00
      vertex 4.400000e+01 2.100000e+01 0.000000e+00
      vertex 5.600000e+01 2.100000e+01 0.000000e+00
    endloop
  endfacet
  facet normal 0.000000e+00 0.000000e+00 1.000000e+00
    outer loop
      vertex 4.400000e+01 9.000000e+00 5.500000e+01
      vertex 5.600000e+01 9.000000e+00 5.500000e+01
      vertex 5.600000e+01 2.100000e+01 5.500000e+01
    endloop
  endfacet
  facet normal 0.000000e+00 0.000000e+00 1.000000e+00
    outer loop
      vertex 4.400000e+01 9.000000e+00 5.500000e+01
      vertex 5.600000e+01 2.100000e+01 5.500000e+01
      vertex 4.400000e+01 2.100000e+01 5.500000e+01
    endloop
  endfacet
  facet normal 0.000000e+00 -1.000000e+00 0.000000e+00
    outer loop
      vertex 4.400000e+01 9.000000e+00 0.000000e+00
      vertex 5.600000e+01 9.000000e+00 0.000000e+00
      vertex 5.600000e+01 9.000000e+00 5.500000e+01
    endloop
  endfacet
  facet normal 0.000000e+00 -1.000000e+00 0.000000e+00
    outer loop
      vertex 4.400000e+01 9.000000e+00 0.000000e+00
      vertex 5.600000e+01 9.000000e+00 5.500000e+01
      vertex 4.400000e+01 9.000000e+00 5.500000e+01
    endloop
  endfacet
  facet normal 0.000000e+00 1.000000e+00 0.000000e+00
    outer loop
      vertex 5.600000e+01 2.100000e+01 0.000000e+00
      vertex 4.400000e+01 2.100000e+01 0.000000e+00
      vertex 4.400000e+01 2.100000e+01 5.500000e+01
    endloop
  endfacet
  facet normal 0.000000e+00 1.000000e+00 -0.000000e+00
    outer loop
      vertex 5.600000e+01 2.100000e+01 0.000000e+00
      vertex 4.400000e+01 2.100000e+01 5.500000e+01
      vertex 5.600000e+01 2.100000e+01 5.500000e+01
    endloop
  endfacet
  facet normal -1.000000e+00 0.000000e+00 0.000000e+00
    outer loop
      vertex 4.400000e+01 9.000000e+00 0.000000e+00
      vertex 4.400000e+01 9.000000e+00 5.500000e+01
      vertex 4.400000e+01 2.100000e+01 5.500000e+01
    endloop
  endfacet
  facet normal -1.000000e+00 0.000000e+00 0.000000e+00
    outer loop
      vertex 4.400000e+01 9.000000e+00 0.000000e+00
      vertex 4.400000e+01 2.100000e+01 5.500000e+01
      vertex 4.400000e+01 2.100000e+01 0.000000e+00
    endloop
  endfacet
  facet normal 1.000000e+00 0.000000e+00 0.000000e+00
    outer loop
      vertex 5.600000e+01 9.000000e+00 0.000000e+00
      vertex 5.600000e+01 2.100000e+01 0.000000e+00
      vertex 5.600000e+01 2.100000e+01 5.500000e+01
    endloop
  endfacet
  facet normal 1.000000e+00 0.000000e+00 0.000000e+00
    outer loop
      vertex 5.600000e+01 9.000000e+00 0.000000e+00
      vertex 5.600000e+01 2.100000e+01 5.500000e+01
      vertex 5.600000e+01 9.000000e+00 5.500000e+01
    endloop
  endfacet
  facet normal 0.000000e+00 0.000000e+00 -1.000000e+00
    outer loop
      vertex 7.100000e+01 1.750000e+01 0.000000e+00
      vertex 8.900000e+01 3.250000e+01 0.000000e+00
      vertex 8.900000e+01 1.750000e+01 0.000000e+00
    endloop
  endfacet
  facet normal 0.000000e+00 0.000000e+00 -1.000000e+00
    outer loop
      vertex 7.100000e+01 1.750000e+01 0.000000e+00
      vertex 7.100000e+01 3.250000e+01 0.000000e+00
      vertex 8.900000e+01 3.250000e+01 0.000000e+00
    endloop
  endfacet
  facet normal 0.000000e+00 0.000000e+00 1.000000e+00
    outer loop
      vertex 7.100000e+01 1.750000e+01 3.500000e+01
      vertex 8.900000e+01 1.750000e+01 3.500000e+01
      vertex 8.900000e+01 3.250000e+01 3.500000e+01
    endloop
  endfacet
  facet normal 0.000000e+00 0.000000e+00 1.000000e+00
    outer loop
      vertex 7.100000e+01 1.750000e+01 3.500000e+01
      vertex 8.900000e+01 3.250000e+01 3.500000e+01
      vertex 7.100000e+01 3.250000e+01 3.500000e+01
    endloop
  endfacet
  facet normal 0.000000e+00 -1.000000e+00 0.000000e+00
    outer loop
      vertex 7.100000e+01 1.750000e+01 0.000000e+00
      vertex 8.900000e+01 1.750000e+01 0.000000e+00
      vertex 8.900000e+01 1.750000e+01 3.500000e+01
    endloop
  endfacet
  facet normal 0.000000e+00 -1.000000e+00 0.000000e+00
    outer loop
      vertex 7.100000e+01 1.750000e+01 0.000000e+00
      vertex 8.900000e+01 1.750000e+01 3.500000e+01
      vertex 7.100000e+01 1.750000e+01 3.500000e+01
    endloop
  endfacet
  facet normal 0.000000e+00 1.000000e+00 0.000000e+00
    outer loop
      vertex 8.900000e+01 3.250000e+01 0.000000e+00
      vertex 7.100000e+01 3.250000e+01 0.000000e+00
      vertex 7.100000e+01 3.250000e+01 3.500000e+01
    endloop
  endfacet
  facet normal 0.000000e+00 1.000000e+00 -0.000000e+00
    outer loop
      vertex 8.900000e+01 3.250000e+01 0.000000e+00
      vertex 7.100000e+01 3.250000e+01 3.500000e+01
      vertex 8.900000e+01 3.250000e+01 3.500000e+01
    endloop
  endfacet
  facet normal -1.000000e+00 0.000000e+00 0.000000e+00
    outer loop
      vertex 7.100000e+01 1.750000e+01 0.000000e+00
      vertex 7.100000e+01 1.750000e+01 3.500000e+01
      vertex 7.100000e+01 3.250000e+01 3.500000e+01
    endloop
  endfacet
  facet normal -1.000000e+00 0.000000e+00 0.000000e+00
    outer loop
      vertex 7.100000e+01 1.750000e+01 0.000000e+00
      vertex 7.100000e+01 3.250000e+01 3.500000e+01
      vertex 7.100000e+01 3.250000e+01 0.000000e+00
    endloop
  endfacet
  facet normal 1.000000e+00 0.000000e+00 0.000000e+00
    outer loop
      vertex 8.900000e+01 1.750000e+01 0.000000e+00
      vertex 8.900000e+01 3.250000e+01 0.000000e+00
      vertex 8.900000e+01 3.250000e+01 3.500000e+01
    endloop
  endfacet
  facet normal 1.000000e+00 0.000000e+00 0.000000e+00
    outer loop
      vertex 8.900000e+01 1.750000e+01 0.000000e+00
      vertex 8.900000e+01 3.250000e+01 3.500000e+01
      vertex 8.900000e+01 1.750000e+01 3.500000e+01
    endloop
  endfacet
  facet normal 0.000000e+00 0.000000e+00 -1.000000e+00
    outer loop
      vertex 1.500000e+01 4.700000e+01 0.000000e+00
      vertex 3.500000e+01 6.300000e+01 0.000000e+00
      vertex 3.500000e+01 4.700000e+01 0.000000e+00
    endloop
  endfacet
  facet normal 0.000000e+00 0.000000e+00 -1.000000e+00
    outer loop
      vertex 1.500000e+01 4.700000e+01 0.000000e+00
      vertex 1.500000e+01 6.300000e+01 0.000000e+00
      vertex 3.500000e+01 6.300000e+01 0.000000e+00
    endloop
  endfacet
  facet normal 0.000000e+00 0.000000e+00 1.000000e+00
    outer loop
      vertex 1.500000e+01 4.700000e+01 4.800000e+01
      vertex 3.500000e+01 4.700000e+01 4.800000e+01
      vertex 3.500000e+01 6.300000e+01 4.800000e+01
    endloop
  endfacet
  facet normal 0.000000e+00 0.000000e+00 1.000000e+00
    outer loop
      vertex 1.500000e+01 4.700000e+01 4.800000e+01
      vertex 3.500000e+01 6.300000e+01 4.800000e+01
      vertex 1.500000e+01 6.300000e+01 4.800000e+01
    endloop
  endfacet
  facet normal 0.000000e+00 -1.000000e+00 0.000000e+00
    outer loop
      vertex 1.500000e+01 4.700000e+01 0.000000e+00
      vertex 3.500000e+01 4.700000e+01 0.000000e+00
      vertex 3.500000e+01 4.700000e+01 4.800000e+01
    endloop
  endfacet
  facet normal 0.000000e+00 -1.000000e+00 0.000000e+00
    outer loop
      vertex 1.500000e+01 4.700000e+01 0.000000e+00
      vertex 3.500000e+01 4.700000e+01 4.800000e+01
      vertex 1.500000e+01 4.700000e+01 4.800000e+01
    endloop
  endfacet
  facet normal 0.000000e+00 1.000000e+00 0.000000e+00
    outer loop
      vertex 3.500000e+01 6.300000e+01 0.000000e+00
      vertex 1.500000e+01 6.300000e+01 0.000000e+00
      vertex 1.500000e+01 6.300000e+01 4.800000e+01
    endloop
  endfacet
  facet normal 0.000000e+00 1.000000e+00 -0.000000e+00
    outer loop
      vertex 3.500000e+01 6.300000e+01 0.000000e+00
      vertex 1.500000e+01 6.300000e+01 4.800000e+01
      vertex 3.500000e+01 6.300000e+01 4.800000e+01
    endloop
  endfacet
  facet normal -1.000000e+00 0.000000e+00 0.000000e+00
    outer loop
      vertex 1.500000e+01 4.700000e+01 0.000000e+00
      vertex 1.500000e+01 4.700000e+01 4.800000e+01
      vertex 1.500000e+01 6.300000e+01 4.800000e+01
    endloop
  endfacet
  facet normal -1.000000e+00 0.000000e+00 0.000000e+00
    outer loop
      vertex 1.500000e+01 4.700000e+01 0.000000e+00
      vertex 1.500000e+01 6.300000e+01 4.800000e+01
      vertex 1.500000e+01 6.300000e+01 0.000000e+00
    endloop
  endfacet
  facet normal 1.000000e+00 0.000000e+00 0.000000e+00
    outer loop
      vertex 3.500000e+01 4.700000e+01 0.000000e+00
      vertex 3.500000e+01 6.300000e+01 0.000000e+00
      vertex 3.500000e+01 6.300000e+01 4.800000e+01
    endloop
  endfacet
  facet normal 1.000000e+00 0.000000e+00 0.000000e+00
    outer loop
      vertex 3.500000e+01 4.700000e+01 0.000000e+00
      vertex 3.500000e+01 6.300000e+01 4.800000e+01
      vertex 3.500000e+01 4.700000e+01 4.800000e+01
    endloop
  endfacet
  facet normal 0.000000e+00 0.000000e+00 -1.000000e+00
    outer loop
      vertex 5.800000e+01 5.100000e+01 0.000000e+00
      vertex 7.200000e+01 6.900000e+01 0.000000e+00
      vertex 7.200000e+01 5.100000e+01 0.000000e+00
    endloop
  endfacet
  facet normal 0.000000e+00 0.000000e+00 -1.000000e+00
    outer loop
      vertex 5.800000e+01 5.100000e+01 0.000000e+00
      vertex 5.800000e+01 6.900000e+01 0.000000e+00
      vertex 7.200000e+01 6.900000e+01 0.000000e+00
    endloop
  endfacet
  facet normal 0.000000e+00 0.000000e+00 1.000000e+00
    outer loop
      vertex 5.800000e+01 5.100000e+01 6.200000e+01
      vertex 7.200000e+01 5.100000e+01 6.200000e+01
      vertex 7.200000e+01 6.900000e+01 6.200000e+01
    endloop
  endfacet
  facet normal 0.000000e+00 0.000000e+00 1.000000e+00
    outer loop
      vertex 5.800000e+01 5.100000e+01 6.200000e+01
      vertex 7.200000e+01 6.900000e+01 6.200000e+01
      vertex 5.800000e+01 6.900000e+01 6.200000e+01
    endloop
  endfacet
  facet normal 0.000000e+00 -1.000000e+00 0.000000e+00
    outer loop
      vertex 5.800000e+01 5.100000e+01 0.000000e+00
      vertex 7.200000e+01 5.100000e+01 0.000000e+00
      vertex 7.200000e+01 5.100000e+01 6.200000e+01
    endloop
  endfacet
  facet normal 0.000000e+00 -1.000000e+00 0.000000e+00
    outer loop
      vertex 5.800000e+01 5.100000e+01 0.000000e+00
      vertex 7.200000e+01 5.100000e+01 6.200000e+01
      vertex 5.800000e+01 5.100000e+01 6.200000e+01
    endloop
  endfacet
  facet normal 0.000000e+00 1.000000e+00 0.000000e+00
    outer loop
      vertex 7.200000e+01 6.900000e+01 0.000000e+00
      vertex 5.800000e+01 6.900000e+01 0.000000e+00
      vertex 5.800000e+01 6.900000e+01 6.200000e+01
    endloop
  endfacet
  facet normal 0.000000e+00 1.000000e+00 -0.000000e+00
    outer loop
      vertex 7.200000e+01 6.900000e+01 0.000000e+00
      vertex 5.800000e+01 6.900000e+01 6.200000e+01
      vertex 7.200000e+01 6.900000e+01 6.200000e+01
    endloop
  endfacet
  facet normal -1.000000e+00 0.000000e+00 0.000000e+00
    outer loop
      vertex 5.800000e+01 5.100000e+01 0.000000e+00
      vertex 5.800000e+01 5.100000e+01 6.200000e+01
      vertex 5.800000e+01 6.900000e+01 6.200000e+01
    endloop
  endfacet
  facet normal -1.000000e+00 0.000000e+00 0.000000e+00
    outer loop
      vertex 5.800000e+01 5.100000e+01 0.000000e+00
      vertex 5.800000e+01 6.900000e+01 6.200000e+01
      vertex 5.800000e+01 6.900000e+01 0.000000e+00
    endloop
  endfacet
  facet normal 1.000000e+00 0.000000e+00 0.000000e+00
    outer loop
      vertex 7.200000e+01 5.100000e+01 0.000000e+00
      vertex 7.200000e+01 6.900000e+01 0.000000e+00
      vertex 7.200000e+01 6.900000e+01 6.200000e+01
    endloop
  endfacet
  facet normal 1.000000e+00 0.000000e+00 0.000000e+00
    outer loop
      vertex 7.200000e+01 5.100000e+01 0.000000e+00
      vertex 7.200000e+01 6.900000e+01 6.200000e+01
      vertex 7.200000e+01 5.100000e+01 6.200000e+01
    endloop
  endfacet
endsolid buildings
